<?xml version="1.0" encoding="UTF-8" standalone="no"?>
<!DOCTYPE svg PUBLIC "-//W3C//DTD SVG 1.1//EN" "http://www.w3.org/Graphics/SVG/1.1/DTD/svg11.dtd">
<svg width="100%" height="100%" viewBox="0 0 750 750" version="1.1" xmlns="http://www.w3.org/2000/svg" xmlns:xlink="http://www.w3.org/1999/xlink" xml:space="preserve" xmlns:serif="http://www.serif.com/" style="fill-rule:evenodd;clip-rule:evenodd;stroke-linejoin:round;stroke-miterlimit:2;">
    <g transform="matrix(1.01064,0,0,1.00261,1.06145,1.00001)">
        <g id="BG" transform="matrix(-0.981428,-0.00278963,0.00280316,-0.986189,957.595,822.459)">
            <path d="M977,451.82C977.172,637.872 839.464,797.573 655.41,824.77L553.3,824.77C553.14,824.91 547.48,825.18 547.48,825.18C546.53,825.05 545.57,824.91 544.62,824.77C537.35,823.7 530.147,822.423 523.01,820.94C495.065,815.155 467.877,806.18 441.98,794.19C441.71,794.07 441.45,793.94 441.18,793.82C426.749,787.122 412.763,779.503 399.31,771.01C398.97,770.8 398.64,770.59 398.31,770.38C397.74,770.02 397.18,769.67 396.62,769.3C396.44,769.19 396.26,769.08 396.08,768.96C384.053,761.213 372.477,752.786 361.41,743.72C360.87,743.29 360.33,742.84 359.79,742.4C357.62,740.6 355.47,738.78 353.34,736.94C353.32,736.93 353.31,736.91 353.29,736.9C342.406,727.467 332.066,717.424 322.32,706.82C322.29,706.78 322.25,706.75 322.22,706.71C279.41,660.144 249.027,603.526 233.89,542.11C233.77,541.67 233.67,541.24 233.56,540.8C226.526,511.663 222.981,481.794 223,451.82C223,243.61 391.79,74.82 600,74.82C808.21,74.82 977,243.61 977,451.82Z" style="fill:rgb(63,61,86);fill-rule:nonzero;"/>
        </g>
        <g id="BG1" serif:id="BG" transform="matrix(0.981432,0,0,0.986193,-218.859,-73.787)">
            <path d="M977,451.82C977.172,637.872 839.464,797.573 655.41,824.77L553.3,824.77C553.14,824.91 547.48,825.18 547.48,825.18C546.53,825.05 545.57,824.91 544.62,824.77C537.35,823.7 530.147,822.423 523.01,820.94C495.065,815.155 467.877,806.18 441.98,794.19C441.71,794.07 441.45,793.94 441.18,793.82C426.749,787.122 412.763,779.503 399.31,771.01C398.97,770.8 398.64,770.59 398.31,770.38C397.74,770.02 397.18,769.67 396.62,769.3C396.44,769.19 396.26,769.08 396.08,768.96C384.053,761.213 372.477,752.786 361.41,743.72C360.87,743.29 360.33,742.84 359.79,742.4C357.62,740.6 355.47,738.78 353.34,736.94C353.32,736.93 353.31,736.91 353.29,736.9C342.406,727.467 332.066,717.424 322.32,706.82C322.29,706.78 322.25,706.75 322.22,706.71C279.41,660.144 249.027,603.526 233.89,542.11C233.77,541.67 233.67,541.24 233.56,540.8C226.526,511.663 222.981,481.794 223,451.82C223,243.61 391.79,74.82 600,74.82C808.21,74.82 977,243.61 977,451.82Z" style="fill:rgb(63,61,86);fill-rule:nonzero;"/>
        </g>
        <g transform="matrix(0.981432,0,0,0.986193,-218.859,-73.787)">
            <path d="M634.853,507.436L667.824,468.838L700.795,430.239L719.407,408.45C720.437,407.244 718.848,405.363 717.818,406.569L684.847,445.167L651.877,483.766L633.264,505.555C632.234,506.761 633.824,508.642 634.853,507.436L634.853,507.436Z" style="fill:url(#_Linear1);fill-rule:nonzero;"/>
        </g>
        <g transform="matrix(0.981432,0,0,0.986193,-1.41099e-06,-1.38067e-07)">
            <rect x="386.81" y="336.41" width="34.1" height="413.54" style="fill:rgb(47,46,65);"/>
        </g>
        <g transform="matrix(0.981432,0,0,0.986193,-1.41099e-06,-1.38067e-07)">
            <path d="M409.95,488.23L409.88,500.61L409.05,650.87L408.95,668.78L408.73,709.14L408.51,749.95L406.31,749.95L406.53,709.14L406.74,671.44L406.85,650.5L407.68,500.64L407.75,488.22L409.95,488.23Z" style="fill:rgb(108,99,255);fill-rule:nonzero;"/>
        </g>
        <g transform="matrix(0.981432,0,0,0.986193,-218.859,-73.787)">
            <path d="M650.031,416.73L603.827,416.73C603.156,409.492 604.825,402.202 609.121,394.854L610.427,385.927L642.33,385.927L643.835,394.741C648.305,400.697 650.037,408.217 650.031,416.73Z" style="fill:rgb(47,46,65);fill-rule:nonzero;"/>
        </g>
        <g transform="matrix(0.981432,0,0,0.986193,-218.859,-73.787)">
            <path d="M643.318,387.027L610.396,387.027C609.189,387.027 608.196,386.034 608.196,384.827C608.196,384.654 608.216,384.482 608.257,384.314L613.801,361.212C614.038,360.226 614.927,359.525 615.941,359.525L637.774,359.525C638.788,359.525 639.676,360.226 639.913,361.212L645.458,384.314C645.498,384.482 645.518,384.654 645.518,384.827C645.518,386.034 644.525,387.027 643.318,387.027Z" style="fill:rgb(47,46,65);fill-rule:nonzero;"/>
        </g>
        <g transform="matrix(0.981432,0,0,0.986193,-218.859,-73.787)">
            <path d="M626.86,347.97C620.523,347.977 615.312,353.193 615.31,359.53L615.31,371.08L638.41,371.08L638.41,359.53C638.408,353.193 633.197,347.977 626.86,347.97Z" style="fill:rgb(47,46,65);fill-rule:nonzero;"/>
        </g>
        <g transform="matrix(0.981432,0,0,0.986193,-1.41099e-06,-1.38067e-07)">
            <path d="M391.051,622.109L312.765,723.714L323.592,726.213L384.388,647.927L391.051,647.927L391.051,622.109Z" style="fill:rgb(47,46,65);fill-rule:nonzero;"/>
        </g>
        <g transform="matrix(0.981432,0,0,0.986193,-1.41099e-06,-1.38067e-07)">
            <path d="M419.831,622.109L498.117,723.714L487.29,726.213L426.494,647.927L419.831,647.927L419.831,622.109Z" style="fill:rgb(47,46,65);fill-rule:nonzero;"/>
        </g>
        <g transform="matrix(0.981432,0,0,0.986193,-218.859,-73.787)">
            <path d="M872.38,320.07L872.38,712.47C848.053,737.888 820.303,759.792 789.93,777.55L789.93,320.07L872.38,320.07Z" style="fill:rgb(47,46,65);fill-rule:nonzero;"/>
        </g>
        <g transform="matrix(0.981432,0,0,0.986193,-1.41099e-06,-1.38067e-07)">
            <rect x="634.387" y="295.224" width="54.134" height="54.134" style="fill:rgb(47,46,65);"/>
        </g>
        <g transform="matrix(0.981432,0,0,0.986193,-1.41099e-06,-1.38067e-07)">
            <rect x="601.906" y="114.5" width="12.492" height="141.581" style="fill:rgb(47,46,65);"/>
        </g>
        <g transform="matrix(0.981432,0,0,0.986193,-218.859,-73.787)">
            <path d="M796.93,320.07L789.93,320.07L789.93,777.55C792.282,776.176 794.615,774.774 796.93,773.345L796.93,320.07Z" style="fill:rgb(230,230,230);fill-rule:nonzero;"/>
        </g>
        <g transform="matrix(0.981432,0,0,0.986193,-1.41099e-06,-1.38067e-07)">
            <rect x="601.906" y="114.5" width="7" height="130.75" style="fill:rgb(230,230,230);"/>
        </g>
        <g transform="matrix(0.981432,0,0,0.986193,-1.41099e-06,-1.38067e-07)">
            <rect x="583.168" y="309.798" width="44.973" height="24.985" style="fill:rgb(108,99,255);"/>
        </g>
        <g transform="matrix(0.981432,0,0,0.986193,-1.41099e-06,-1.38067e-07)">
            <circle cx="146.933" cy="244.847" r="66.193" style="fill:rgb(230,230,230);"/>
        </g>
        <g transform="matrix(0.981432,0,0,0.986193,-1.41099e-06,-1.38067e-07)">
            <circle cx="140.423" cy="199.271" r="7.596" style="fill:rgb(203,203,203);"/>
        </g>
        <g transform="matrix(0.981432,0,0,0.986193,-1.41099e-06,-1.38067e-07)">
            <circle cx="153.444" cy="275.23" r="7.596" style="fill:rgb(203,203,203);"/>
        </g>
        <g transform="matrix(0.981432,0,0,0.986193,-1.41099e-06,-1.38067e-07)">
            <circle cx="182.742" cy="232.91" r="5.426" style="fill:rgb(203,203,203);"/>
        </g>
        <g transform="matrix(0.981432,0,0,0.986193,-1.41099e-06,-1.38067e-07)">
            <circle cx="120.89" cy="250.272" r="17.362" style="fill:rgb(203,203,203);"/>
        </g>
        <g transform="matrix(0.981432,0,0,0.986193,-1.41099e-06,-1.38067e-07)">
            <circle cx="252.015" cy="349.213" r="3.576" style="fill:rgb(108,99,255);"/>
        </g>
        <g transform="matrix(0.981432,0,0,0.986193,-1.41099e-06,-1.38067e-07)">
            <path d="M283.012,401.093L281.227,402.866L279.454,401.081L278.264,402.263L280.037,404.048L278.252,405.821L279.434,407.011L281.219,405.238L282.992,407.023L284.182,405.841L282.409,404.056L284.194,402.283L283.012,401.093Z" style="fill:rgb(230,230,230);fill-rule:nonzero;"/>
        </g>
        <g transform="matrix(0.981432,0,0,0.986193,-1.41099e-06,-1.38067e-07)">
            <path d="M297.318,297.375L295.533,299.148L293.76,297.363L292.57,298.545L294.343,300.33L292.558,302.103L293.74,303.293L295.525,301.52L297.298,303.305L298.488,302.123L296.715,300.338L298.5,298.565L297.318,297.375Z" style="fill:rgb(230,230,230);fill-rule:nonzero;"/>
        </g>
        <g transform="matrix(0.981432,0,0,0.986193,-218.859,-73.787)">
            <path d="M565.279,175.376C561.417,177.949 557.464,171.825 561.401,169.366C565.262,166.793 569.215,172.917 565.279,175.376Z" style="fill:rgb(230,230,230);fill-rule:nonzero;"/>
        </g>
        <g transform="matrix(0.981432,0,0,0.986193,-1.41099e-06,-1.38067e-07)">
            <path d="M118.557,366.728L116.1,366.189L116.638,363.731L115,363.372L114.461,365.83L112.004,365.292L111.645,366.93L114.102,367.469L113.564,369.926L115.202,370.285L115.741,367.827L118.198,368.366L118.557,366.728Z" style="fill:rgb(230,230,230);fill-rule:nonzero;"/>
        </g>
        <g transform="matrix(0.981432,0,0,0.986193,-1.41099e-06,-1.38067e-07)">
            <path d="M494.557,71.728L492.1,71.189L492.638,68.731L491,68.372L490.461,70.83L488.004,70.292L487.645,71.93L490.102,72.469L489.564,74.926L491.202,75.285L491.741,72.827L494.198,73.366L494.557,71.728Z" style="fill:rgb(230,230,230);fill-rule:nonzero;"/>
        </g>
        <g transform="matrix(0.981432,0,0,0.986193,-1.41099e-06,-1.38067e-07)">
            <path d="M686.557,230.728L684.1,230.189L684.638,227.731L683,227.372L682.461,229.83L680.004,229.292L679.645,230.93L682.102,231.469L681.564,233.926L683.202,234.285L683.741,231.827L686.198,232.366L686.557,230.728Z" style="fill:rgb(230,230,230);fill-rule:nonzero;"/>
        </g>
        <g transform="matrix(0.981432,0,0,0.986193,-1.41099e-06,-1.38067e-07)">
            <path d="M222.46,110.506L220.003,109.967L220.541,107.51L218.903,107.151L218.364,109.608L215.906,109.07L215.547,110.708L218.005,111.247L217.467,113.705L219.105,114.063L219.644,111.606L222.101,112.144L222.46,110.506Z" style="fill:rgb(230,230,230);fill-rule:nonzero;"/>
        </g>
        <g transform="matrix(0.981432,0,0,0.986193,-1.41099e-06,-1.38067e-07)">
            <circle cx="455.34" cy="188.551" r="3.576" style="fill:rgb(108,99,255);"/>
        </g>
        <g transform="matrix(0.981432,0,0,0.986193,-1.41099e-06,-1.38067e-07)">
            <path d="M428.557,242.728L426.1,242.189L426.638,239.731L425,239.372L424.461,241.83L422.004,241.292L421.645,242.93L424.102,243.469L423.564,245.926L425.202,246.285L425.741,243.827L428.198,244.366L428.557,242.728Z" style="fill:rgb(230,230,230);fill-rule:nonzero;"/>
        </g>
        <g transform="matrix(0.981432,0,0,0.986193,-1.41099e-06,-1.38067e-07)">
            <path d="M523.46,198.506L521.003,197.967L521.541,195.51L519.903,195.151L519.364,197.608L516.906,197.07L516.547,198.708L519.005,199.247L518.467,201.705L520.105,202.063L520.644,199.606L523.101,200.144L523.46,198.506Z" style="fill:rgb(230,230,230);fill-rule:nonzero;"/>
        </g>
        <g transform="matrix(0.981432,0,0,0.986193,-218.859,-73.787)">
            <path d="M580.853,293.436L613.824,254.838L646.795,216.239L665.407,194.45C666.437,193.244 664.848,191.363 663.818,192.569L630.847,231.167L597.877,269.766L579.264,291.555C578.234,292.761 579.824,294.642 580.853,293.436L580.853,293.436Z" style="fill:url(#_Linear2);fill-rule:nonzero;"/>
        </g>
        <g transform="matrix(0.981432,0,0,0.986193,-1.41099e-06,-1.38067e-07)">
            <rect x="385.494" y="646.969" width="6" height="102.023" style="fill:rgb(230,230,230);"/>
        </g>
        <g transform="matrix(0.981432,0,0,0.986193,-218.859,-73.787)">
            <path d="M628.54,347.42C623.517,348.779 620,353.367 619.99,358.57L619.99,358.67C619.244,358.893 618.669,359.495 618.48,360.25L612.94,383.36C612.9,383.526 612.88,383.697 612.88,383.868C612.88,385.023 613.796,385.989 614.95,386.05L614.91,386.32L614.76,387.32L612.5,394.32C608.21,401.66 607.84,408.53 608.51,415.77L614.49,415.77L614.49,696.28L536.45,797.58L542.19,798.9L541.28,800.08L530.45,797.58L608.49,696.28L608.49,415.77L603.5,415.32C602.83,408.08 604.21,401.66 608.5,394.32L608.76,387.32L608.91,386.32L608.95,386.05C607.796,385.989 606.88,385.023 606.88,383.868C606.88,383.697 606.9,383.526 606.94,383.36L612.48,360.25C612.669,359.495 613.244,358.893 613.99,358.67L613.99,358.57C613.992,352.233 619.203,347.017 625.54,347.01C626.554,347.013 627.563,347.151 628.54,347.42Z" style="fill:rgb(230,230,230);fill-rule:nonzero;"/>
        </g>
        <g transform="matrix(0.981432,0,0,0.986193,-1.41099e-06,-1.38067e-07)">
            <path d="M431.177,646.969L425.594,646.969L425.594,647.506L485.974,725.255L491.062,724.081L431.177,646.969Z" style="fill:rgb(230,230,230);fill-rule:nonzero;"/>
        </g>
        <g transform="matrix(0.981432,0,0,0.986193,-218.859,-73.787)">
            <path d="M737.88,783.96L737.88,802.81C711.317,813.249 683.647,820.616 655.41,824.77L532.41,824.77C529.26,824.2 526.12,823.59 523.01,822.94L523.01,783.96L737.88,783.96Z" style="fill:rgb(47,46,65);fill-rule:nonzero;"/>
        </g>
        <g transform="matrix(0.981432,0,0,0.986193,-218.859,-73.787)">
            <path d="M632.05,725.69C631.35,725.57 630.61,725.45 629.85,725.32C625.38,724.6 619.99,723.78 613.81,722.93C613.39,722.87 612.96,722.81 612.52,722.75C607.42,722.06 601.81,721.36 595.76,720.67C562.59,716.94 516.26,713.95 468.98,718.06C470.15,713.36 471.23,708.66 472.25,703.98L426.97,710.99L475.83,686.14C480.433,660.611 483.598,634.844 485.31,608.96L460.85,612.74L485.86,600.02C487.65,567.99 486.81,546.67 486.81,546.67C486.81,546.67 405,589.2 339.58,654.2C337.18,645.74 334.55,637.39 331.75,629.19L296.61,658.59L325.58,612.07C316.331,587.834 305.721,564.14 293.8,541.1L274.82,556.98L289.66,533.16C274.64,504.81 262.9,486.99 262.9,486.99C262.9,486.99 249.51,508.93 233.56,542.8C248.601,604.763 279.148,661.897 322.32,708.82C332.08,719.44 342.437,729.497 353.34,738.94C355.47,740.78 357.62,742.6 359.79,744.4C371.348,753.967 383.466,762.836 396.08,770.96C396.82,771.44 397.56,771.91 398.31,772.38C436.489,796.611 478.736,813.741 523.01,822.94C526.12,823.59 529.26,824.2 532.41,824.77C533.18,824.91 533.95,825.05 534.72,825.18L547.48,825.18C547.48,825.18 553.14,824.91 553.3,824.77C569.15,810.9 583.52,796.88 595.91,783.96C598.73,781.03 601.44,778.15 604.05,775.35L582.67,762.88L610.11,768.76C611.37,767.37 612.61,766 613.81,764.66C619.97,757.78 625.31,751.55 629.74,746.26C630.5,745.34 631.24,744.46 631.95,743.6C640.02,733.86 644.46,727.92 644.46,727.92C644.46,727.92 640,727.01 632.05,725.69Z" style="fill:rgb(47,46,65);fill-rule:nonzero;"/>
        </g>
        <g transform="matrix(0.981432,0,0,0.986193,-218.859,-73.787)">
            <path d="M608.49,415.77L602.51,415.77C601.84,408.53 603.51,401.24 607.8,393.9L608.76,387.32L608.91,386.32L614.91,386.32L614.76,387.32L613.8,393.9C609.51,401.24 607.84,408.53 608.51,415.77L614.49,415.77" style="fill:rgb(108,99,255);fill-rule:nonzero;"/>
        </g>
        <g transform="matrix(0.981432,0,0,0.986193,-1.41099e-06,-1.38067e-07)">
            <rect x="385.49" y="427.5" width="6" height="73" style="fill:rgb(108,99,255);"/>
        </g>
        <g transform="matrix(0.981432,0,0,0.986193,-1.41099e-06,-1.38067e-07)">
            <circle cx="606.5" cy="114.5" r="11" style="fill:rgb(108,99,255);"/>
        </g>
    </g>
    <defs>
        <linearGradient id="_Linear1" x1="0" y1="0" x2="1" y2="0" gradientUnits="userSpaceOnUse" gradientTransform="matrix(86.81,0,0,86.81,632.931,457.002)"><stop offset="0" style="stop-color:white;stop-opacity:0.8"/><stop offset="1" style="stop-color:white;stop-opacity:0.24"/></linearGradient>
        <linearGradient id="_Linear2" x1="0" y1="0" x2="1" y2="0" gradientUnits="userSpaceOnUse" gradientTransform="matrix(7535.97,0,0,7535.97,50835.9,24891.7)"><stop offset="0" style="stop-color:white;stop-opacity:0.8"/><stop offset="1" style="stop-color:white;stop-opacity:0.24"/></linearGradient>
    </defs>
</svg>
